<?xml version="1.0" encoding="utf-8"?>
<!-- Generator: Adobe Illustrator 23.0.3, SVG Export Plug-In . SVG Version: 6.00 Build 0)  -->
<svg version="1.1" id="Capa_1" xmlns="http://www.w3.org/2000/svg" xmlns:xlink="http://www.w3.org/1999/xlink" x="0px" y="0px"
	 width="300px" height="133px" viewBox="0 0 300 133" style="enable-background:new 0 0 300 133;" xml:space="preserve">
<style type="text/css">
	.st0{fill:#E52227;}
	.st1{fill:#203461;}
	.st2{fill:#036B66;}
	.st3{fill-rule:evenodd;clip-rule:evenodd;fill:#FFFFFF;}
	.st4{fill:#FFFFFF;}
</style>
<g>
	<path class="st0" d="M96.59,12h43.88c6.14,0,9.94,5.01,8.51,11.15l-20.43,87.72C127.1,117,120.96,122,114.84,122H70.95
		c-6.12,0-9.94-5-8.5-11.13l20.44-87.72C84.31,17.01,90.44,12,96.59,12L96.59,12L96.59,12z"/>
	<path class="st1" d="M136.82,12h50.45c6.12,0,3.36,5.01,1.93,11.15l-20.44,87.72c-1.43,6.13-0.98,11.13-7.12,11.13h-50.46
		c-6.14,0-9.94-5-8.5-11.13l20.42-87.72C124.56,17.01,130.68,12,136.82,12L136.82,12L136.82,12z"/>
	<path class="st2" d="M185.28,12h43.88c6.13,0,9.95,5.01,8.51,11.15l-20.43,87.72C215.8,117,209.66,122,203.52,122h-43.86
		c-6.14,0-9.95-5-8.51-11.13l20.43-87.72C173.01,17.01,179.15,12,185.28,12L185.28,12L185.28,12z"/>
	<path class="st3" d="M177.95,94.52h4.14l1.2-3.97h-4.13L177.95,94.52L177.95,94.52z M181.26,83.55l-1.41,4.7
		c0,0,1.57-0.8,2.41-1.06c0.85-0.19,2.14-0.35,2.14-0.35l1.01-3.3H181.26L181.26,83.55z M183.32,76.78l-1.38,4.52
		c0,0,1.54-0.69,2.38-0.92c0.86-0.22,2.13-0.31,2.13-0.31l0.99-3.29L183.32,76.78L183.32,76.78z M192.47,76.78l-5.35,17.7h1.44
		l-1.11,3.66h-1.43l-0.34,1.13h-5.09l0.35-1.13h-10.35l1.05-3.39h1.05l5.42-17.96l1.08-3.63h5.19l-0.55,1.82c0,0,1.39-0.99,2.7-1.33
		c1.29-0.34,8.83-0.47,8.83-0.47l-1.11,3.61H192.47L192.47,76.78z"/>
	<path class="st4" d="M194.76,73.17h5.55l0.06,2.06c-0.03,0.35,0.27,0.51,0.91,0.51h1.13l-1.03,3.42h-3
		c-2.59,0.19-3.57-0.92-3.51-2.18L194.76,73.17L194.76,73.17z"/>
	<path class="st4" d="M195.48,89.34h-5.28l0.9-3.04h6.04l0.87-2.76h-5.97l1.03-3.43h16.59l-1.04,3.43h-5.56l-0.87,2.76h5.58
		l-0.92,3.04h-6.03l-1.07,1.29h2.45l0.6,3.82c0.06,0.38,0.07,0.62,0.19,0.79c0.13,0.14,0.85,0.21,1.29,0.21h0.74l-1.13,3.72h-1.89
		c-0.3,0-0.72-0.01-1.31-0.05c-0.57-0.05-0.97-0.38-1.35-0.57c-0.34-0.17-0.86-0.58-0.98-1.29l-0.58-3.82l-2.74,3.76
		c-0.87,1.18-2.05,2.09-4.05,2.09h-3.83l1-3.32h1.47c0.42,0,0.8-0.17,1.07-0.31c0.29-0.12,0.54-0.27,0.82-0.68L195.48,89.34
		L195.48,89.34z"/>
	<path class="st4" d="M137.63,81.04h13.99l-1.03,3.34H145l-0.87,2.85h5.72l-1.05,3.44h-5.71l-1.39,4.62
		c-0.16,0.51,1.35,0.59,1.9,0.59l2.86-0.4l-1.15,3.81h-6.45c-0.52,0-0.9-0.07-1.47-0.2c-0.55-0.13-0.77-0.38-1.03-0.74
		c-0.23-0.38-0.59-0.7-0.35-1.49l1.85-6.13h-3.17l1.05-3.5h3.2l0.84-2.85h-3.17L137.63,81.04L137.63,81.04z"/>
	<path class="st4" d="M147.05,75.04h5.74l-1.05,3.49h-7.83l-0.86,0.73c-0.36,0.36-0.49,0.21-0.97,0.47
		c-0.44,0.22-1.37,0.66-2.58,0.66h-2.51l1.01-3.35h0.76c0.64,0,1.08-0.06,1.29-0.21c0.25-0.15,0.53-0.5,0.85-1.09l1.44-2.61h5.71
		L147.05,75.04L147.05,75.04z"/>
	<path class="st3" d="M158.06,80.78c0,0,1.57-1.43,4.24-1.89c0.61-0.12,4.43-0.08,4.43-0.08l0.58-1.92h-8.08L158.06,80.78
		L158.06,80.78z M165.63,82.24h-8.01l-0.5,1.61h6.94c0.82-0.1,0.99,0.02,1.06-0.02L165.63,82.24L165.63,82.24z M155.25,73.17h4.89
		l-0.71,2.46c0,0,1.54-1.23,2.62-1.67c1.08-0.41,3.51-0.77,3.51-0.77l7.91-0.04l-2.69,8.97c-0.45,1.54-0.98,2.53-1.31,2.99
		c-0.3,0.46-0.65,0.85-1.34,1.23c-0.67,0.35-1.28,0.56-1.84,0.62c-0.52,0.04-1.33,0.06-2.43,0.06h-7.62l-2.15,7.11
		c-0.2,0.7-0.3,1.04-0.16,1.23c0.11,0.17,0.37,0.36,0.73,0.36l3.36-0.32l-1.15,3.9h-3.76c-1.19,0-2.06-0.03-2.67-0.07
		c-0.58-0.05-1.19,0-1.59-0.31c-0.36-0.31-0.89-0.71-0.87-1.13c0.04-0.4,0.2-1.02,0.44-1.9L155.25,73.17L155.25,73.17z"/>
	<path class="st4" d="M169.5,87.66l-0.45,2.15c-0.2,0.67-0.37,1.18-0.87,1.62c-0.53,0.45-1.17,0.93-2.63,0.93l-2.71,0.11l-0.02,2.43
		c-0.04,0.7,0.14,0.62,0.26,0.74c0.12,0.12,0.23,0.18,0.35,0.22l0.86-0.05l2.59-0.15l-1.06,3.56h-2.98c-2.09,0-3.63-0.05-4.13-0.45
		c-0.5-0.31-0.58-0.72-0.56-1.39l0.19-9.51h4.75l-0.07,1.94h1.14c0.39,0,0.65-0.04,0.82-0.15c0.14-0.11,0.24-0.26,0.32-0.5
		l0.47-1.51L169.5,87.66L169.5,87.66z"/>
	<path class="st4" d="M101.78,40.03c-0.18,0.77-3.22,14.83-3.23,14.83c-0.66,2.85-1.13,4.88-2.74,6.18c-0.93,0.76-2,1.13-3.24,1.13
		c-2,0-3.17-0.99-3.36-2.89l-0.04-0.64c0,0,0.6-3.81,0.61-3.83c0,0,3.19-12.81,3.77-14.5c0.02-0.1,0.04-0.14,0.05-0.19
		c-6.22,0.05-7.33,0-7.4-0.1c-0.04,0.12-0.21,0.93-0.21,0.93l-3.26,14.42l-0.29,1.24l-0.53,4c0,1.18,0.22,2.15,0.7,2.97
		c1.49,2.6,5.72,2.99,8.12,2.99c3.1,0,5.99-0.65,7.95-1.86c3.4-2.01,4.31-5.16,5.09-7.94l0.37-1.43c0,0,3.3-13.31,3.87-15.04
		c0.01-0.1,0.02-0.14,0.05-0.19C103.53,40.17,102.21,40.12,101.78,40.03L101.78,40.03z"/>
	<path class="st4" d="M119.98,66.43c-2.2-0.03-2.98-0.03-5.55,0.09l-0.11-0.19c0.23-0.98,0.48-1.95,0.69-2.95l0.32-1.33
		c0.48-2.09,0.94-4.52,1-5.26c0.05-0.45,0.2-1.55-1.08-1.55c-0.54,0-1.09,0.25-1.66,0.51c-0.31,1.11-0.94,4.23-1.24,5.66
		c-0.64,3-0.68,3.34-0.96,4.82l-0.19,0.2c-2.27-0.03-3.06-0.03-5.68,0.09l-0.13-0.22c0.44-1.78,0.88-3.58,1.3-5.35
		c1.1-4.84,1.35-6.68,1.66-9.13l0.21-0.16c2.55-0.35,3.17-0.42,5.93-0.99l0.23,0.27l-0.42,1.53c0.47-0.27,0.92-0.56,1.4-0.81
		c1.3-0.63,2.75-0.82,3.55-0.82c1.21,0,2.53,0.33,3.08,1.74c0.53,1.25,0.18,2.78-0.51,5.81l-0.36,1.54c-0.7,3.37-0.82,3.99-1.23,6.3
		L119.98,66.43L119.98,66.43z"/>
	<path class="st4" d="M128.95,66.43c-1.33-0.01-2.19-0.03-3.02-0.01c-0.83,0.01-1.64,0.05-2.87,0.1l-0.07-0.1l-0.07-0.11
		c0.33-1.27,0.52-1.72,0.69-2.18c0.17-0.45,0.32-0.91,0.62-2.2c0.38-1.68,0.63-2.87,0.8-3.9c0.17-1,0.28-1.86,0.41-2.85l0.09-0.08
		l0.11-0.1c1.32-0.18,2.17-0.3,3.02-0.44c0.87-0.13,1.74-0.3,3.11-0.55l0.05,0.12l0.04,0.11c-0.25,1.05-0.5,2.09-0.76,3.16
		c-0.24,1.06-0.5,2.11-0.73,3.15c-0.5,2.22-0.7,3.05-0.81,3.65c-0.12,0.56-0.15,0.87-0.34,2.02l-0.12,0.1L128.95,66.43L128.95,66.43
		z"/>
	<path class="st4" d="M143,58.59c-0.12,0.56-0.61,2.7-1.29,3.6c-0.47,0.67-1.03,1.07-1.66,1.07c-0.18,0-1.26,0-1.28-1.62
		c-0.01-0.8,0.15-1.62,0.36-2.5c0.57-2.58,1.27-4.73,3.01-4.73C143.51,54.41,143.6,56.01,143,58.59L143,58.59z M148.78,58.83
		c0.77-3.39,0.18-4.97-0.58-5.95c-1.16-1.47-3.18-1.94-5.28-1.94c-1.27,0-4.28,0.12-6.64,2.3c-1.68,1.56-2.47,3.69-2.95,5.73
		c-0.47,2.07-1.03,5.82,2.41,7.21c1.08,0.45,2.59,0.58,3.58,0.58c2.53,0,5.11-0.69,7.04-2.75
		C147.86,62.34,148.54,59.85,148.78,58.83L148.78,58.83z"/>
	<path class="st4" d="M202.74,66.66c-2.67-0.02-3.43-0.02-5.9,0.08l-0.16-0.2c0.68-2.53,1.35-5.06,1.95-7.61
		c0.77-3.32,0.94-4.73,1.2-6.67l0.19-0.17c2.65-0.38,3.37-0.48,6.13-1l0.09,0.23c-0.51,2.08-1.01,4.16-1.49,6.26
		c-1.02,4.37-1.39,6.6-1.78,8.89L202.74,66.66L202.74,66.66z"/>
	<path class="st4" d="M198.74,58.88c-0.14,0.54-0.63,2.7-1.31,3.59c-0.44,0.64-1.52,1.03-2.15,1.03c-0.17,0-1.25,0-1.29-1.6
		c-0.01-0.79,0.15-1.62,0.36-2.51c0.58-2.52,1.27-4.66,3.02-4.66C198.74,54.74,199.33,56.3,198.74,58.88L198.74,58.88z M204,59.14
		c0.77-3.38-2.34-0.31-2.84-1.42c-0.76-1.73-0.28-5.26-3.35-6.44c-1.18-0.45-3.95,0.14-6.31,2.31c-1.67,1.55-2.48,3.66-2.94,5.69
		c-0.47,2.05-1.02,5.79,2.4,7.13c1.09,0.46,2.07,0.59,3.06,0.56c3.44-0.2,6.06-5.39,8-7.44C203.51,57.88,203.77,60.13,204,59.14
		L204,59.14z"/>
	<path class="st4" d="M163.85,66.43c-2.21-0.03-2.97-0.03-5.56,0.09l-0.09-0.19c0.22-0.98,0.46-1.95,0.7-2.95l0.31-1.33
		c0.48-2.09,0.94-4.52,1-5.26c0.04-0.45,0.2-1.55-1.07-1.55c-0.55,0-1.1,0.25-1.67,0.51c-0.31,1.11-0.94,4.23-1.25,5.66
		c-0.63,3-0.66,3.34-0.95,4.82l-0.19,0.2c-2.27-0.03-3.06-0.03-5.67,0.09l-0.12-0.22c0.44-1.78,0.86-3.58,1.28-5.35
		c1.09-4.84,1.35-6.68,1.66-9.13l0.2-0.16c2.55-0.35,3.17-0.42,5.94-0.99l0.22,0.27l-0.41,1.53c0.45-0.27,0.92-0.56,1.38-0.81
		c1.3-0.63,2.76-0.82,3.55-0.82c1.2,0,2.53,0.33,3.1,1.74c0.52,1.25,0.17,2.78-0.52,5.81l-0.35,1.54c-0.72,3.37-0.83,3.99-1.22,6.3
		L163.85,66.43L163.85,66.43z"/>
	<path class="st4" d="M182.97,40.01c-0.01,0-1.83,0.02-1.83,0.02c-4.77,0.06-6.68,0.04-7.47-0.06c-0.07,0.35-0.2,0.97-0.2,0.97
		l-1.7,7.93c0,0-4.09,16.85-4.28,17.64c4.16-0.05,5.87-0.05,6.59,0.02c0.17-0.79,1.14-5.49,1.15-5.49c0,0,0.82-3.45,0.87-3.58
		c0,0,0.26-0.36,0.53-0.5h0.38c3.59,0,7.65,0,10.83-2.34c2.16-1.61,3.64-3.97,4.3-6.85c0.17-0.7,0.29-1.56,0.29-2.39
		c0-1.1-0.21-2.19-0.86-3.05C189.93,40.06,186.71,40.03,182.97,40.01L182.97,40.01z M185.36,48.25c-0.39,1.76-1.53,3.24-2.98,3.96
		c-1.22,0.61-2.69,0.66-4.22,0.66h-0.98l0.07-0.39c0,0,1.83-7.91,1.82-7.89l0.05-0.4l0.04-0.31l0.72,0.08c0,0,3.74,0.32,3.84,0.33
		C185.19,44.84,185.79,46.33,185.36,48.25L185.36,48.25z"/>
	<path class="st4" d="M224.55,51.07l-0.21-0.23c-2.73,0.55-3.22,0.64-5.73,0.96l-0.18,0.19c-0.01,0.03-0.02,0.07-0.02,0.12
		l-0.01-0.04c-1.87,4.31-1.81,3.38-3.33,6.77c-0.01-0.16-0.01-0.26-0.02-0.42l-0.37-7.34l-0.24-0.23c-2.85,0.55-2.92,0.64-5.56,0.96
		l-0.21,0.19c-0.02,0.09-0.02,0.19-0.03,0.29l0.01,0.05c0.33,1.68,0.26,1.3,0.58,3.96c0.15,1.31,0.35,2.62,0.51,3.91
		c0.26,2.15,0.41,3.22,0.72,6.5c-1.77,2.94-2.21,4.05-3.9,6.63l0.1,0.24c2.57-0.09,3.17-0.09,5.08-0.09l0.43-0.48
		C213.58,69.89,224.55,51.07,224.55,51.07L224.55,51.07z"/>
	<path class="st4" d="M131.37,52.89c1.46-1.02,1.64-2.43,0.4-3.15c-1.24-0.74-3.41-0.51-4.88,0.51c-1.48,1-1.65,2.41-0.41,3.15
		C127.72,54.13,129.9,53.91,131.37,52.89L131.37,52.89z"/>
	<path class="st4" d="M211.94,73.25l-2.14,3.66c-0.69,1.26-1.93,2.2-3.94,2.21l-3.41-0.06l1-3.3h0.67c0.34,0,0.59-0.03,0.79-0.12
		c0.17-0.06,0.3-0.19,0.44-0.39l1.26-2H211.94L211.94,73.25z"/>
</g>
<g>
</g>
<g>
</g>
<g>
</g>
<g>
</g>
<g>
</g>
<g>
</g>
</svg>
